<svg width="15" height="17" viewBox="0 0 15 17" fill="none" xmlns="http://www.w3.org/2000/svg">
<path d="M13.7539 9.69141L7.84766 15.8789C7.67188 16.0547 7.46094 16.125 7.25 16.125C7.00391 16.125 6.79297 16.0547 6.61719 15.8789L0.710938 9.69141C0.394531 9.33984 0.394531 8.8125 0.746094 8.49609C1.0625 8.17969 1.625 8.17969 1.94141 8.53125L6.40625 13.207V1.25391C6.40625 0.761719 6.75781 0.410156 7.21484 0.410156C7.63672 0.410156 8.09375 0.761719 8.09375 1.25391V13.207L12.5234 8.53125C12.8398 8.17969 13.4023 8.17969 13.7188 8.49609C14.0703 8.8125 14.0703 9.33984 13.7539 9.69141Z" fill="#00ADEE"/>
</svg>
