<svg width="13" height="12" viewBox="0 0 13 12" fill="none" xmlns="http://www.w3.org/2000/svg">
<path d="M12.25 1.46875V9.90625C12.25 10.3984 11.8633 10.75 11.4062 10.75C10.9141 10.75 10.5625 10.3984 10.5625 9.90625V3.50781L2.44141 11.6289C2.26562 11.8047 2.05469 11.875 1.84375 11.875C1.59766 11.875 1.38672 11.8047 1.24609 11.6289C0.894531 11.3125 0.894531 10.7852 1.24609 10.4688L9.36719 2.3125H2.96875C2.47656 2.3125 2.125 1.96094 2.125 1.46875C2.125 1.01172 2.47656 0.625 2.96875 0.625H11.4062C11.8633 0.625 12.25 1.01172 12.25 1.46875Z" fill="#00ADEE"/>
</svg>
