<svg width="10" height="10" viewBox="0 0 10 10" fill="none" xmlns="http://www.w3.org/2000/svg">
<path d="M9.75 1.53125V8.09375C9.75 8.47656 9.44922 8.75 9.09375 8.75C8.71094 8.75 8.4375 8.47656 8.4375 8.09375V3.11719L2.12109 9.43359C1.98438 9.57031 1.82031 9.625 1.65625 9.625C1.46484 9.625 1.30078 9.57031 1.19141 9.43359C0.917969 9.1875 0.917969 8.77734 1.19141 8.53125L7.50781 2.1875H2.53125C2.14844 2.1875 1.875 1.91406 1.875 1.53125C1.875 1.17578 2.14844 0.875 2.53125 0.875H9.09375C9.44922 0.875 9.75 1.17578 9.75 1.53125Z" fill="#00ADEE"/>
</svg>
