<svg width="72" height="70" viewBox="0 0 72 70" fill="none" xmlns="http://www.w3.org/2000/svg">
<path d="M26.1236 49.3412C30.0965 57.6208 42.1497 57.8962 45.9174 49.3353C44.8392 48.181 43.8548 46.8098 42.9759 45.5852L42.9524 45.5559C41.1184 47.0149 38.8976 47.9407 35.9971 47.9349C32.8739 47.929 30.5183 46.7336 28.5905 44.9699C28.4733 44.8644 28.362 44.759 28.2507 44.6476C27.9753 45.4152 27.6237 46.3352 27.2487 47.1907C26.8913 48.011 26.4987 48.7845 26.1236 49.3412ZM47.2651 48.6439C51.6422 51.4858 61.6035 52.2241 65.4767 54.3804C66.7893 55.1129 67.9729 56.0446 68.928 57.3044C70.9144 59.9295 74.981 69.4572 68.3889 69.9611H55.99L57.5135 52.8979C54.3083 52.271 50.8922 51.5034 47.353 49.5521C47.1655 49.5521 47.0952 49.6342 46.8198 49.8803C44.3529 59.2966 29.2234 60.6795 25.0162 49.6693C21.7172 51.3334 18.3538 52.2827 14.5158 52.8745L16.9065 69.967H3.61106C-2.98099 69.463 1.08557 59.9353 3.07197 57.3102C4.02709 56.0504 5.21073 55.1187 6.52328 54.3863C10.4551 52.1831 20.6977 51.4623 24.9517 48.4915C25.2623 48.0228 25.6021 47.3372 25.9244 46.5989C26.4108 45.4855 26.8561 44.2668 27.1432 43.4347C25.9537 42.0342 24.9341 40.4522 23.9556 38.8994L20.8441 33.948C20.6215 33.9304 20.3988 33.8835 20.1703 33.8191C17.6331 33.0222 15.5178 27.3735 15.9338 24.7074C16.1682 23.1956 16.7073 22.6507 17.5686 22.3226C17.5276 22.1995 17.5042 22.0706 17.5042 21.93V16.2344C17.5042 14.0957 18.1487 11.9921 19.1859 10.0818C20.3285 7.98997 21.9516 6.12662 23.7271 4.70859C27.3542 1.83153 32.0536 0.390066 36.7295 0.442803C41.3645 0.489679 45.9877 2.00732 49.521 5.00743C51.2262 6.45475 52.6676 8.35326 53.6696 10.451C54.6482 12.496 55.2166 14.7344 55.2166 16.9317V21.6311C55.2166 22.2991 54.6775 22.8382 54.0095 22.8382C53.3415 22.8382 52.8024 22.2991 52.8024 21.6311V16.9317C52.8024 15.0918 52.3219 13.2109 51.5016 11.4881C50.6461 9.69511 49.4156 8.07786 47.9624 6.84735C44.8626 4.21639 40.7961 2.89212 36.7061 2.8511C32.5633 2.80422 28.4147 4.0699 25.2271 6.61296C23.6861 7.84348 22.2797 9.44901 21.2953 11.2479C20.4457 12.8124 19.9183 14.5234 19.9183 16.2461V21.6839L19.9535 21.6721L20.9496 22.9085C20.8676 20.7873 20.8617 18.5255 20.9555 16.5274C21.0258 15.8301 21.1547 15.1387 21.3539 14.4414C22.1743 11.4999 24.2427 9.13259 26.7975 7.50362C33.413 3.29057 43.0345 3.88825 48.5132 9.8123C50.3004 11.746 51.4254 14.3125 51.6656 17.711L51.4664 26.0727C52.3571 26.3422 52.9313 26.9106 53.1657 27.8306C53.4235 28.8443 53.1423 30.2799 52.2809 32.2311C52.2633 32.2663 52.2457 32.3015 52.2282 32.3366L48.5542 38.3837C47.2065 40.6045 45.8353 42.8312 44.054 44.589L44.1654 44.7414C45.097 46.0422 46.1576 47.5188 47.2651 48.6439ZM22.6313 27.2446L24.0493 31.1354C24.2017 31.5807 24.2486 31.9733 24.1841 32.3073L24.1958 32.2956C26.399 34.7332 29.112 36.4969 32.37 37.5399C32.534 37.1649 32.7626 36.8309 33.0966 36.5731C34.0927 35.8055 37.0049 35.8758 37.9073 36.62C38.6632 37.247 38.6749 38.6767 38.1124 39.4267C36.9463 40.9854 32.1004 39.6728 30.4773 39.1513C27.8405 38.3075 25.4498 36.2391 23.2759 34.4168L25.4849 37.9267C26.7799 39.9834 28.1335 42.0753 29.8152 43.6163C31.4324 45.0988 33.3954 46.095 35.9971 46.1067C38.8097 46.1125 40.8664 45.0695 42.5364 43.5109C44.2708 41.8878 45.642 39.6553 46.9955 37.4345L50.6226 31.4577C51.2965 29.9166 51.5485 28.8794 51.3902 28.2759C51.2965 27.9126 50.898 27.7368 50.2242 27.7075C50.0777 27.7017 49.9312 27.7017 49.7847 27.7017C49.6206 27.7075 49.4507 27.7192 49.2749 27.7368C49.1812 27.7427 49.0874 27.7368 48.9937 27.7192C48.6714 27.7368 48.3374 27.7134 47.9975 27.6665L49.2398 22.1643C40.0168 23.6175 33.12 16.7677 23.3696 20.7932L24.0728 27.2798C23.6802 27.2974 23.3052 27.2856 22.9595 27.2329C22.8481 27.227 22.7368 27.2388 22.6313 27.2446Z" fill="white"/>
</svg>
