<svg width="24" height="27" viewBox="0 0 24 27" fill="none" xmlns="http://www.w3.org/2000/svg">
<rect width="24" height="27" fill="#1E1E1E"/>
<g id="Desktop - 1" clip-path="url(#clip0_0_1)">
<rect width="1440" height="2892" transform="translate(-663 -1092)" fill="white"/>
<g id="Frame 1618873648">
<g id="Frame 1618873647">
<g id="Frame 1618873637">
<g id="Component 11" filter="url(#filter0_d_0_1)">
<g id="Frame 1618873646">
<g id="Frame" filter="url(#filter1_d_0_1)">
<rect x="-13.0659" y="-11.6325" width="50" height="50" rx="25" fill="#03AFED" shape-rendering="crispEdges"/>
<g id="Group 1">
<g id="Vector">
<path d="M19.2983 23.3768H15.9209C15.9299 23.3258 15.9389 23.2719 15.9389 23.2179V22.5137C16.9938 22.4058 17.8209 21.5128 17.8209 20.4279V12.858C17.8209 11.4136 17.2785 10.098 16.3914 9.09404V7.27199C16.3914 6.07327 15.4145 5.09931 14.2157 5.09931H9.65162C8.4559 5.09931 7.48194 6.07327 7.48194 7.27199V9.09404C6.59189 10.098 6.04647 11.4136 6.04647 12.858V17.1614H4.87473C4.14651 17.1614 3.55314 17.7548 3.55314 18.483V20.5867C3.55314 20.9853 3.22949 21.309 2.83091 21.309C2.43234 21.309 2.10869 20.9853 2.10869 20.5867V5.69867H2.77397C2.9388 5.69867 3.08864 5.60277 3.15457 5.44994L3.37333 4.95846C3.52018 4.99442 3.67002 5.0154 3.82285 5.0154C4.71889 5.0154 5.4651 4.3591 5.60894 3.50202H7.76963C7.9884 3.50202 8.1682 3.3312 8.18619 3.11543H16.4094C16.4483 3.32221 16.5832 3.48404 16.772 3.526L18.5041 3.90059C18.5251 3.90659 18.5461 3.90659 18.5671 3.90659H18.9956C19.2593 3.90659 19.4631 3.66984 19.4631 3.37016V1.26641C19.4631 0.963736 19.2593 0.72699 18.9956 0.72699H18.5671C18.5461 0.72699 18.5251 0.729987 18.5041 0.732983L16.772 1.10758C16.5832 1.14954 16.4483 1.31136 16.4094 1.51814H8.16521C8.10827 1.35332 7.95243 1.23045 7.76963 1.23045H2.73502C2.61814 1.23045 2.51026 1.30237 2.46231 1.41026L0.823061 5.1113C0.763126 5.24016 0.775113 5.39 0.853029 5.50688C0.930946 5.62675 1.0628 5.69867 1.20665 5.69867H1.50933V20.5867C1.50933 21.315 2.0997 21.9083 2.83091 21.9083C3.56213 21.9083 4.1525 21.315 4.1525 20.5867V18.483C4.1525 18.0844 4.47615 17.7608 4.87473 17.7608H6.04647V20.4279C6.04647 21.5128 6.87359 22.4058 7.93146 22.5137V23.2179C7.93146 23.2719 7.93745 23.3258 7.94944 23.3768H4.57205C3.86481 23.3768 3.29242 23.9521 3.29242 24.6564V24.7283C3.29242 25.4356 3.86481 26.0079 4.57205 26.0079H19.2983C20.0025 26.0079 20.5779 25.4356 20.5779 24.7283V24.6564C20.5779 23.9521 20.0025 23.3768 19.2983 23.3768ZM8.18918 2.1175H16.3914V2.51608H8.18918V2.1175ZM3.82285 4.41604C3.75393 4.41604 3.688 4.40705 3.62207 4.39507L4.01764 3.50202H4.9946C4.85974 4.02646 4.38925 4.41604 3.82285 4.41604ZM9.0133 7.27199C9.0133 6.91837 9.30099 6.63067 9.65162 6.63067H14.2157C14.5694 6.63067 14.86 6.91837 14.86 7.27199V7.86535C14.0479 7.41883 13.1189 7.1641 12.13 7.1641H11.7404C10.7514 7.1641 9.82243 7.41883 9.0133 7.86236V7.27199ZM6.64583 20.4279V18.6868H8.42593C8.59075 18.6868 8.72561 18.5519 8.72561 18.3871C8.72561 18.2223 8.59075 18.0874 8.42593 18.0874H6.64583V16.0196H8.42593C8.59075 16.0196 8.72561 15.8848 8.72561 15.7199C8.72561 15.5551 8.59075 15.4203 8.42593 15.4203H6.64583V13.3525H8.42593C8.59075 13.3525 8.72561 13.2176 8.72561 13.0528C8.72561 12.888 8.59075 12.7531 8.42593 12.7531H6.65183C6.62486 12.7531 6.73574 11.938 6.75072 11.8631C6.81066 11.5754 6.89756 11.2907 7.00545 11.018C7.22421 10.4756 7.52689 9.93314 7.91647 9.49261C8.32703 9.03111 8.83649 8.64752 9.38191 8.35383C9.92433 8.06314 10.5177 7.87434 11.129 7.79942C11.3298 7.77545 11.5336 7.76047 11.7374 7.76047H12.127C13.1189 7.76047 14.0449 8.05115 14.8331 8.54563L15.1867 8.79436C15.1867 8.79436 15.1717 8.77038 15.1657 8.74941C15.1717 8.76439 15.1807 8.77638 15.1867 8.79436C15.4025 8.95619 15.6033 9.13 15.792 9.33078C15.798 9.33078 15.804 9.33678 15.81 9.33678C15.9359 9.48362 16.0348 9.6005 16.0348 9.6005C16.0408 9.6005 16.0438 9.60349 16.0498 9.60649C16.76 10.4636 17.1916 11.5574 17.2155 12.7501H15.4444C15.2766 12.7501 15.1447 12.882 15.1447 13.0498C15.1447 13.2176 15.2766 13.3495 15.4444 13.3495H17.2215V15.4173H15.4444C15.2766 15.4173 15.1447 15.5521 15.1447 15.717C15.1447 15.8818 15.2766 16.0166 15.4444 16.0166H17.2215V18.0844H15.4444C15.2766 18.0844 15.1447 18.2193 15.1447 18.3841C15.1447 18.5489 15.2766 18.6838 15.4444 18.6838H17.2215V20.4249C17.2215 21.249 16.5502 21.9233 15.7231 21.9233H8.14423C7.32011 21.9233 6.64583 21.249 6.64583 20.4249V20.4279ZM13.9041 23.3768H9.96628C9.97527 23.3258 9.98426 23.2719 9.98426 23.2179V22.5257H13.8861V23.2179C13.8861 23.2719 13.8921 23.3258 13.9041 23.3768ZM19.9786 24.7283C19.9786 25.1029 19.6729 25.4086 19.2983 25.4086H4.57205C4.19446 25.4086 3.89178 25.1029 3.89178 24.7283V24.6564C3.89178 24.2818 4.19446 23.9761 4.57205 23.9761H19.2983C19.6729 23.9761 19.9786 24.2818 19.9786 24.6564V24.7283Z" fill="white"/>
<path d="M15.1867 8.79436L14.8331 8.54563C14.0449 8.05115 13.1189 7.76047 12.127 7.76047H11.7374C11.5336 7.76047 11.3298 7.77545 11.129 7.79942C10.5177 7.87434 9.92433 8.06314 9.38191 8.35383C8.83649 8.64752 8.32703 9.03111 7.91647 9.49261C7.52689 9.93314 7.22421 10.4756 7.00545 11.018C6.89756 11.2907 6.81066 11.5754 6.75072 11.8631C6.73574 11.938 6.62486 12.7531 6.65183 12.7531H8.42593C8.59075 12.7531 8.72561 12.888 8.72561 13.0528C8.72561 13.2176 8.59075 13.3525 8.42593 13.3525H6.64583V15.4203H8.42593C8.59075 15.4203 8.72561 15.5551 8.72561 15.7199C8.72561 15.8848 8.59075 16.0196 8.42593 16.0196H6.64583V18.0874H8.42593C8.59075 18.0874 8.72561 18.2223 8.72561 18.3871C8.72561 18.5519 8.59075 18.6868 8.42593 18.6868H6.64583V20.4279V20.4249C6.64583 21.249 7.32011 21.9233 8.14423 21.9233H15.7231C16.5502 21.9233 17.2215 21.249 17.2215 20.4249V18.6838H15.4444C15.2766 18.6838 15.1447 18.5489 15.1447 18.3841C15.1447 18.2193 15.2766 18.0844 15.4444 18.0844H17.2215V16.0166H15.4444C15.2766 16.0166 15.1447 15.8818 15.1447 15.717C15.1447 15.5521 15.2766 15.4173 15.4444 15.4173H17.2215V13.3495H15.4444C15.2766 13.3495 15.1447 13.2176 15.1447 13.0498C15.1447 12.882 15.2766 12.7501 15.4444 12.7501H17.2155C17.1916 11.5574 16.76 10.4636 16.0498 9.60649C16.0438 9.60349 16.0408 9.6005 16.0348 9.6005C16.0348 9.6005 15.9359 9.48362 15.81 9.33678C15.804 9.33678 15.798 9.33079 15.792 9.33079C15.6033 9.13 15.4025 8.95619 15.1867 8.79436ZM15.1867 8.79436C15.1867 8.79436 15.1717 8.77038 15.1657 8.74941C15.1717 8.76439 15.1807 8.77638 15.1867 8.79436ZM19.2983 23.3768H15.9209C15.9299 23.3258 15.9389 23.2719 15.9389 23.2179V22.5137C16.9938 22.4058 17.8209 21.5128 17.8209 20.4279V12.858C17.8209 11.4136 17.2785 10.098 16.3914 9.09404V7.27199C16.3914 6.07327 15.4145 5.09931 14.2157 5.09931H9.65162C8.4559 5.09931 7.48194 6.07327 7.48194 7.27199V9.09404C6.59189 10.098 6.04647 11.4136 6.04647 12.858V17.1614H4.87473C4.14651 17.1614 3.55314 17.7548 3.55314 18.483V20.5867C3.55314 20.9853 3.22949 21.309 2.83091 21.309C2.43234 21.309 2.10869 20.9853 2.10869 20.5867V5.69867H2.77397C2.9388 5.69867 3.08864 5.60277 3.15457 5.44994L3.37333 4.95846C3.52018 4.99442 3.67002 5.0154 3.82285 5.0154C4.71889 5.0154 5.4651 4.3591 5.60894 3.50202H7.76963C7.9884 3.50202 8.1682 3.3312 8.18619 3.11543H16.4094C16.4483 3.32221 16.5832 3.48404 16.772 3.526L18.5041 3.90059C18.5251 3.90659 18.5461 3.90659 18.5671 3.90659H18.9956C19.2593 3.90659 19.4631 3.66984 19.4631 3.37016V1.26641C19.4631 0.963736 19.2593 0.72699 18.9956 0.72699H18.5671C18.5461 0.72699 18.5251 0.729987 18.5041 0.732983L16.772 1.10758C16.5832 1.14954 16.4483 1.31136 16.4094 1.51814H8.16521C8.10827 1.35332 7.95243 1.23045 7.76963 1.23045H2.73502C2.61814 1.23045 2.51026 1.30237 2.46231 1.41026L0.823061 5.1113C0.763126 5.24016 0.775113 5.39 0.853029 5.50688C0.930946 5.62675 1.0628 5.69867 1.20665 5.69867H1.50933V20.5867C1.50933 21.315 2.0997 21.9083 2.83091 21.9083C3.56213 21.9083 4.1525 21.315 4.1525 20.5867V18.483C4.1525 18.0844 4.47615 17.7608 4.87473 17.7608H6.04647V20.4279C6.04647 21.5128 6.87359 22.4058 7.93146 22.5137V23.2179C7.93146 23.2719 7.93745 23.3258 7.94944 23.3768H4.57205C3.86481 23.3768 3.29242 23.9521 3.29242 24.6564V24.7283C3.29242 25.4356 3.86481 26.0079 4.57205 26.0079H19.2983C20.0025 26.0079 20.5779 25.4356 20.5779 24.7283V24.6564C20.5779 23.9521 20.0025 23.3768 19.2983 23.3768ZM8.18918 2.1175H16.3914V2.51608H8.18918V2.1175ZM3.82285 4.41604C3.75393 4.41604 3.688 4.40705 3.62207 4.39507L4.01764 3.50202H4.9946C4.85974 4.02646 4.38925 4.41604 3.82285 4.41604ZM9.0133 7.27199C9.0133 6.91837 9.30099 6.63067 9.65162 6.63067H14.2157C14.5694 6.63067 14.86 6.91837 14.86 7.27199V7.86535C14.0479 7.41883 13.1189 7.1641 12.13 7.1641H11.7404C10.7514 7.1641 9.82243 7.41883 9.0133 7.86236V7.27199ZM13.9041 23.3768H9.96628C9.97527 23.3258 9.98426 23.2719 9.98426 23.2179V22.5257H13.8861V23.2179C13.8861 23.2719 13.8921 23.3258 13.9041 23.3768ZM19.9786 24.7283C19.9786 25.1029 19.6729 25.4086 19.2983 25.4086H4.57205C4.19446 25.4086 3.89178 25.1029 3.89178 24.7283V24.6564C3.89178 24.2818 4.19446 23.9761 4.57205 23.9761H19.2983C19.6729 23.9761 19.9786 24.2818 19.9786 24.6564V24.7283Z" stroke="white" stroke-width="0.202703"/>
</g>
<path id="Vector_2" d="M11.555 16.2804V15.4653C11.555 15.2555 11.7258 15.0847 11.9356 15.0847C12.1453 15.0847 12.3162 15.2555 12.3162 15.4653V16.2804C12.9515 16.1126 13.422 15.5402 13.422 14.851C13.422 14.0328 12.7537 13.3676 11.9356 13.3676C11.1174 13.3676 10.4521 14.0328 10.4521 14.851C10.4521 15.5342 10.9196 16.1096 11.555 16.2804Z" fill="white" stroke="white" stroke-width="0.202703"/>
<path id="Vector_3" d="M21.6601 2.90869H20.0988C19.9339 2.90869 19.7991 3.04355 19.7991 3.20837C19.7991 3.37319 19.9339 3.50805 20.0988 3.50805H21.6601C21.8249 3.50805 21.9598 3.37319 21.9598 3.20837C21.9598 3.04355 21.8249 2.90869 21.6601 2.90869Z" fill="white" stroke="white" stroke-width="0.202703"/>
<path id="Vector_4" d="M20.0988 1.71014H21.6601C21.8249 1.71014 21.9598 1.57528 21.9598 1.41046C21.9598 1.24563 21.8249 1.11078 21.6601 1.11078H20.0988C19.9339 1.11078 19.7991 1.24563 19.7991 1.41046C19.7991 1.57528 19.9339 1.71014 20.0988 1.71014Z" fill="white" stroke="white" stroke-width="0.202703"/>
<path id="Vector_5" d="M22.7835 2.02155H21.1503C20.9854 2.02155 20.8506 2.1564 20.8506 2.32122C20.8506 2.48605 20.9854 2.6209 21.1503 2.6209H22.7835C22.9483 2.6209 23.0832 2.48605 23.0832 2.32122C23.0832 2.1564 22.9483 2.02155 22.7835 2.02155Z" fill="white" stroke="white" stroke-width="0.202703"/>
</g>
</g>
</g>
</g>
</g>
</g>
</g>
</g>
<defs>
<filter id="filter0_d_0_1" x="-33.0659" y="-27.6325" width="282" height="390" filterUnits="userSpaceOnUse" color-interpolation-filters="sRGB">
<feFlood flood-opacity="0" result="BackgroundImageFix"/>
<feColorMatrix in="SourceAlpha" type="matrix" values="0 0 0 0 0 0 0 0 0 0 0 0 0 0 0 0 0 0 127 0" result="hardAlpha"/>
<feOffset dy="4"/>
<feGaussianBlur stdDeviation="10"/>
<feComposite in2="hardAlpha" operator="out"/>
<feColorMatrix type="matrix" values="0 0 0 0 0 0 0 0 0 0 0 0 0 0 0 0 0 0 0.1 0"/>
<feBlend mode="normal" in2="BackgroundImageFix" result="effect1_dropShadow_0_1"/>
<feBlend mode="normal" in="SourceGraphic" in2="effect1_dropShadow_0_1" result="shape"/>
</filter>
<filter id="filter1_d_0_1" x="-33.3362" y="-26.4974" width="90.5405" height="90.5405" filterUnits="userSpaceOnUse" color-interpolation-filters="sRGB">
<feFlood flood-opacity="0" result="BackgroundImageFix"/>
<feColorMatrix in="SourceAlpha" type="matrix" values="0 0 0 0 0 0 0 0 0 0 0 0 0 0 0 0 0 0 127 0" result="hardAlpha"/>
<feOffset dy="5.4054"/>
<feGaussianBlur stdDeviation="10.1351"/>
<feComposite in2="hardAlpha" operator="out"/>
<feColorMatrix type="matrix" values="0 0 0 0 0.0117647 0 0 0 0 0.686275 0 0 0 0 0.929412 0 0 0 0.24 0"/>
<feBlend mode="normal" in2="BackgroundImageFix" result="effect1_dropShadow_0_1"/>
<feBlend mode="normal" in="SourceGraphic" in2="effect1_dropShadow_0_1" result="shape"/>
</filter>
<clipPath id="clip0_0_1">
<rect width="1440" height="2892" fill="white" transform="translate(-663 -1092)"/>
</clipPath>
</defs>
</svg>
