<svg width="46" height="46" viewBox="0 0 46 46" fill="none" xmlns="http://www.w3.org/2000/svg">
<rect x="0.666504" y="0.734985" width="45" height="45" rx="22.5" fill="#DBDBDB"/>
<path d="M23.1664 23.235C19.5887 23.235 16.7164 20.3627 16.7164 16.785C16.7164 13.2576 19.5887 10.335 23.1664 10.335C26.6938 10.335 29.6164 13.2576 29.6164 16.785C29.6164 20.3627 26.6938 23.235 23.1664 23.235ZM20.8484 25.6537H25.434C30.4227 25.6537 34.4539 29.685 34.4539 34.6736C34.4539 35.4799 33.7484 36.135 32.9422 36.135H13.3402C12.534 36.135 11.8789 35.4799 11.8789 34.6736C11.8789 29.685 15.8598 25.6537 20.8484 25.6537Z" fill="white"/>
</svg>
