<svg width="25" height="25" viewBox="0 0 25 25" fill="none" xmlns="http://www.w3.org/2000/svg">
<path d="M7.6875 1.67188L9.5625 6.17188C9.89062 6.92188 9.70312 7.8125 9.04688 8.32812L6.75 10.25C8.29688 13.5312 10.9688 16.2031 14.25 17.75L16.1719 15.4531C16.6875 14.7969 17.5781 14.6094 18.3281 14.9375L22.8281 16.8125C23.7188 17.1406 24.1406 18.125 23.9062 19.0156L22.7812 23.1406C22.5469 23.9375 21.8438 24.5 21 24.5C9.375 24.5 0 15.125 0 3.5C0 2.65625 0.5625 1.95312 1.35938 1.71875L5.48438 0.59375C6.375 0.359375 7.35938 0.78125 7.6875 1.67188Z" fill="#32346B"/>
</svg>
